# xmcd
#
# Track frame offsets:
#	180
#	16912
#	47184
#	65574
#	86300
#	99180
#	114702
#	141420
#	152575
#	169842
#
# Disc length: 3069 seconds
#
# Revision: 0
# Processed by: cddbd v1.5.1PL0 Copyright (c) Steve Scherf et al.
# Submitted via: dBpowerAMP V4.0
#
DISCID=7c0bfb0a
DTITLE=Don Irwin - Blue
DYEAR=2000
DGENRE=Blues
TTITLE0=Blue Velvet
TTITLE1=Knights in White Satin
TTITLE2=Blue Moon
TTITLE3=Blue Eyes
TTITLE4=Cote D'Azur
TTITLE5=Blue On Blue
TTITLE6=Tuesday Afternoon
TTITLE7=Blue Eyes Crying in the Rain
TTITLE8=Blue Danube
TTITLE9=Rhapsody in Blue
EXTD=
EXTT0=
EXTT1=
EXTT2=
EXTT3=
EXTT4=
EXTT5=
EXTT6=
EXTT7=
EXTT8=
EXTT9=
PLAYORDER=
